<svg width="184" height="108" viewBox="0 0 184 108" fill="none" xmlns="http://www.w3.org/2000/svg">
<path d="M171.182 12.0815C164.115 5.01665 154.71 0.778192 144.736 0.163825C134.762 -0.450543 124.908 2.60154 117.027 8.7457C109.832 3.15496 100.978 0.119265 91.8657 0.1175C82.753 0.115734 73.8993 3.14801 66.701 8.73594C58.4915 2.29421 48.1329 -0.771238 37.7399 0.165434C27.3469 1.1021 17.7034 5.97026 10.778 13.776C3.85254 21.5818 0.16758 31.7365 0.475356 42.1671C0.783132 52.5976 5.06044 62.5177 12.4341 69.9013L37.6159 95.0867C37.6354 95.1056 37.6549 95.1239 37.6768 95.1434C37.6988 95.1629 37.7049 95.1721 37.7189 95.1861C37.7451 95.2123 37.7731 95.2361 37.7993 95.2623C38.1996 95.6585 38.6059 96.0443 39.0183 96.4203C39.2304 96.6148 39.445 96.8031 39.6608 96.9927C39.8359 97.1451 40.0118 97.2962 40.1886 97.4455C47.3669 103.528 56.4198 106.955 65.8263 107.15C75.2335 107.346 84.4206 104.298 91.8456 98.5189C99.7259 104.663 109.58 107.715 119.554 107.101C129.528 106.486 138.933 102.248 146 95.183L171.182 70.0012C178.852 62.3147 183.158 51.8996 183.158 41.0413C183.158 30.1829 178.851 19.7681 171.182 12.0815ZM91.8578 10.7845C97.845 10.7807 103.699 12.5532 108.678 15.8776C113.657 19.202 117.538 23.929 119.83 29.4601C122.122 34.9913 122.721 41.078 121.552 46.9498C120.383 52.8217 117.498 58.2147 113.262 62.4464L91.8578 83.8505L70.4525 62.4464C66.217 58.2147 63.3322 52.8216 62.1632 46.9497C60.9941 41.0778 61.5933 34.991 63.885 29.4599C66.1768 23.9287 70.0581 19.2017 75.0372 15.8774C80.0169 12.553 85.8706 10.7805 91.8578 10.7845ZM36.4036 66.2241C36.3926 62.2471 37.1707 58.3077 38.6927 54.6336C40.2146 50.9595 42.4502 47.6237 45.2701 44.8194L50.9671 39.1223C50.6913 44.8169 51.6103 50.5061 53.665 55.8242C55.7197 61.142 58.8647 65.9712 62.8976 70.0012L83.8647 90.9683C79.3422 94.1359 74.037 96.0016 68.5271 96.3612C63.0177 96.7208 57.5146 95.5616 52.6187 93.0089C47.7227 90.4557 43.6213 86.6085 40.7618 81.8848C37.9024 77.1617 36.3944 71.7438 36.4023 66.2223L36.4036 66.2241ZM19.9877 62.3458C14.6298 56.9892 11.4757 49.818 11.1483 42.2488C10.8209 34.6796 13.3441 27.2628 18.2194 21.4637C23.0948 15.6645 29.9678 11.9045 37.4806 10.9266C44.9935 9.94862 52.6 11.8238 58.7975 16.1817L37.7152 37.264C33.9002 41.0582 30.8757 45.5715 28.8168 50.5425C26.7579 55.5135 25.7053 60.8436 25.7201 66.2241C25.7201 66.8592 25.7349 67.4919 25.7646 68.1227L19.9877 62.3458ZM117.041 96.4941C110.857 96.5087 104.818 94.6144 99.7503 91.0695L120.82 70.0012C124.853 65.9712 127.998 61.142 130.053 55.8241C132.107 50.5061 133.026 44.8169 132.751 39.1223L138.448 44.8194C142.682 49.053 145.564 54.4468 146.732 60.3188C147.9 66.1906 147.3 72.2771 145.009 77.8084C142.718 83.3397 138.837 88.067 133.86 91.3931C128.881 94.7192 123.029 96.4941 117.041 96.4941ZM163.628 62.4464L157.952 68.1227C157.98 67.4925 157.995 66.8598 157.996 66.2241C158.011 60.8436 156.958 55.5135 154.899 50.5424C152.84 45.5714 149.815 41.0582 146 37.264L124.933 16.1957C131.141 11.8754 138.742 10.036 146.239 11.0397C153.736 12.0433 160.586 15.8173 165.439 21.6186C170.293 27.4198 172.799 34.8279 172.463 42.3843C172.128 49.9407 168.976 57.0978 163.628 62.4464Z" fill="#292C44"/>
</svg>
