<svg width="278" height="163" viewBox="0 0 278 163" fill="none" xmlns="http://www.w3.org/2000/svg">
<path d="M259.006 18.3119C248.295 7.60372 234.04 1.1795 218.922 0.248308C203.806 -0.682885 188.869 3.94314 176.925 13.2558C166.018 4.78196 152.6 0.18077 138.788 0.178094C124.976 0.175417 111.556 4.77142 100.646 13.241C88.2026 3.47732 72.5021 -1.16896 56.7494 0.250747C40.9969 1.67045 26.3802 9.04909 15.8834 20.8803C5.38654 32.7114 -0.198737 48.1029 0.267758 63.9124C0.734253 79.722 7.21734 94.7578 18.3935 105.949L56.5614 144.123C56.591 144.151 56.6206 144.179 56.6538 144.208C56.6871 144.238 56.6963 144.252 56.7176 144.273C56.7573 144.313 56.7998 144.349 56.8395 144.389C57.4462 144.989 58.062 145.574 58.6872 146.144C59.0087 146.439 59.3339 146.724 59.6609 147.011C59.9263 147.242 60.193 147.471 60.4609 147.698C71.341 156.917 85.0626 162.111 99.3199 162.407C113.578 162.703 127.503 158.084 138.757 149.325C150.701 158.637 165.638 163.263 180.754 162.332C195.872 161.401 210.128 154.977 220.838 144.268L259.007 106.101C270.632 94.4501 277.16 78.6639 277.16 62.206C277.16 45.7481 270.631 29.9624 259.006 18.3119ZM138.776 16.346C147.85 16.3402 156.723 19.0268 164.27 24.0656C171.817 29.1044 177.699 36.269 181.173 44.6526C184.646 53.0361 185.555 62.2617 183.783 71.1616C182.011 80.0616 177.638 88.2358 171.219 94.6497L138.776 127.092L106.332 94.6497C99.9121 88.2358 95.5396 80.0615 93.7677 71.1614C91.9957 62.2614 92.9039 53.0357 96.3775 44.6522C99.8511 36.2685 105.734 29.104 113.281 24.0652C120.828 19.0265 129.701 16.34 138.776 16.346ZM54.7239 100.376C54.7074 94.3476 55.8868 88.3767 58.1936 82.8079C60.5004 77.239 63.8889 72.183 68.1629 67.9326L76.7979 59.2975C76.3799 67.9287 77.7727 76.5519 80.887 84.6125C84.0014 92.6727 88.7682 99.9922 94.8809 106.101L126.661 137.88C119.806 142.681 111.765 145.509 103.413 146.054C95.0629 146.599 86.7219 144.842 79.3011 140.973C71.8803 137.103 65.6639 131.272 61.3298 124.112C56.9957 116.954 54.7101 108.742 54.7221 100.373L54.7239 100.376ZM29.8425 94.4972C21.7216 86.3783 16.9409 75.5089 16.4447 64.0363C15.9485 52.5638 19.7729 41.3222 27.1624 32.5324C34.5519 23.7425 44.9693 18.0436 56.3564 16.5614C67.7437 15.0791 79.2728 17.9213 88.6663 24.5265L56.712 56.4808C50.9297 62.2317 46.3455 69.0725 43.2247 76.607C40.104 84.1416 38.5086 92.2203 38.5311 100.376C38.5311 101.338 38.5535 102.297 38.5985 103.253L29.8425 94.4972ZM176.946 146.256C167.572 146.278 158.42 143.407 150.738 138.034L182.674 106.101C188.787 99.9922 193.553 92.6727 196.667 84.6123C199.782 76.5518 201.175 67.9287 200.757 59.2975L209.392 67.9326C215.809 74.3494 220.178 82.5248 221.948 91.425C223.719 100.325 222.81 109.55 219.336 117.934C215.864 126.318 209.982 133.483 202.438 138.524C194.892 143.565 186.021 146.256 176.946 146.256ZM247.557 94.6497L238.954 103.253C238.997 102.298 239.019 101.339 239.021 100.376C239.043 92.2203 237.448 84.1415 234.327 76.6069C231.206 69.0724 226.622 62.2317 220.839 56.4808L188.907 24.5478C198.317 17.9995 209.838 15.2116 221.201 16.7328C232.565 18.254 242.946 23.9742 250.303 32.7671C257.659 41.5601 261.457 52.7884 260.949 64.2417C260.441 75.6948 255.664 86.5428 247.557 94.6497Z" fill="white"/>
</svg>
