<svg width="16" height="16" viewBox="0 0 16 16" fill="none" xmlns="http://www.w3.org/2000/svg">
<path d="M7.9998 7.97471C6.8998 7.97471 5.9874 7.61231 5.2626 6.88751C4.5374 6.16231 4.1748 5.24971 4.1748 4.14971C4.1748 3.04971 4.5374 2.13731 5.2626 1.41251C5.9874 0.687307 6.8998 0.324707 7.9998 0.324707C9.0998 0.324707 10.0122 0.687307 10.737 1.41251C11.4622 2.13731 11.8248 3.04971 11.8248 4.14971C11.8248 5.24971 11.4622 6.16231 10.737 6.88751C10.0122 7.61231 9.0998 7.97471 7.9998 7.97471ZM0 15.9997V13.5001C0 12.8833 0.154 12.3457 0.462 11.8873C0.7704 11.4289 1.1746 11.0831 1.6746 10.8499C2.7582 10.3499 3.8208 9.97071 4.8624 9.71231C5.904 9.45391 6.9498 9.32471 7.9998 9.32471C9.0498 9.32471 10.0914 9.45391 11.1246 9.71231C12.1582 9.97071 13.225 10.3499 14.325 10.8499C14.825 11.0831 15.229 11.4289 15.537 11.8873C15.8454 12.3457 15.9996 12.8833 15.9996 13.5001V15.9997H0Z" fill="#042756"/>
</svg>
