<svg width="20" height="20" viewBox="0 0 20 20" fill="none" xmlns="http://www.w3.org/2000/svg">
<path d="M7.5504 14.325L14.325 10.0002L7.5504 5.6754V14.325ZM10.0002 20.0004C8.6334 20.0004 7.3418 19.7378 6.1254 19.2126C4.9086 18.6878 3.846 17.9712 2.9376 17.0628C2.0292 16.1544 1.3126 15.0918 0.7878 13.875C0.2626 12.6586 0 11.367 0 10.0002C0 8.617 0.2626 7.317 0.7878 6.1002C1.3126 4.8834 2.0292 3.825 2.9376 2.925C3.846 2.025 4.9086 1.3126 6.1254 0.7878C7.3418 0.2626 8.6334 0 10.0002 0C11.3834 0 12.6834 0.2626 13.9002 0.7878C15.117 1.3126 16.1754 2.025 17.0754 2.925C17.9754 3.825 18.6878 4.8834 19.2126 6.1002C19.7378 7.317 20.0004 8.617 20.0004 10.0002C20.0004 11.367 19.7378 12.6586 19.2126 13.875C18.6878 15.0918 17.9754 16.1544 17.0754 17.0628C16.1754 17.9712 15.117 18.6878 13.9002 19.2126C12.6834 19.7378 11.3834 20.0004 10.0002 20.0004Z" fill="#042756"/>
</svg>
