<svg width="18" height="19" viewBox="0 0 18 19" fill="none" xmlns="http://www.w3.org/2000/svg">
<path d="M16.8 18.9746L10.3248 12.5C9.8248 12.9164 9.2416 13.2454 8.5752 13.487C7.9084 13.729 7.2084 13.85 6.4752 13.85C4.6584 13.85 3.125 13.225 1.875 11.975C0.625 10.725 0 9.20821 0 7.42461C0 5.64141 0.625 4.12061 1.875 2.86221C3.125 1.60381 4.65 0.974609 6.45 0.974609C8.2332 0.974609 9.7498 1.60381 10.9998 2.86221C12.2498 4.12061 12.8748 5.64141 12.8748 7.42461C12.8748 8.14141 12.7582 8.82901 12.525 9.48741C12.2918 10.1458 11.9502 10.7582 11.5002 11.3246L18 17.7746L16.8 18.9746ZM6.45 12.1748C7.7668 12.1748 8.8876 11.7122 9.8124 10.787C10.7376 9.86221 11.2002 8.74141 11.2002 7.42461C11.2002 6.10821 10.7376 4.98321 9.8124 4.04961C8.8876 3.11641 7.7668 2.64981 6.45 2.64981C5.1168 2.64981 3.9876 3.11641 3.0624 4.04961C2.1376 4.98321 1.6752 6.10821 1.6752 7.42461C1.6752 8.74141 2.1376 9.86221 3.0624 10.787C3.9876 11.7122 5.1168 12.1748 6.45 12.1748Z" fill="#042756"/>
</svg>
