<svg width="18" height="24" viewBox="0 0 18 24" fill="none" xmlns="http://www.w3.org/2000/svg">
<path d="M17.4001 7.14004V19.5612C17.4001 20.1876 16.8577 20.4864 16.2001 20.9532C15.6721 21.3288 15.0001 20.8632 15.0001 20.2488V8.11204C15.0001 7.85884 14.9113 7.61764 14.6233 7.47004C14.3353 7.32244 5.33767 2.59204 5.33767 2.59204C5.19247 2.53804 4.55887 2.13844 3.71407 2.57284C2.91127 2.98564 2.47447 3.43444 2.36287 3.64564L12.1789 9.02404C12.4393 9.16084 12.6001 9.37204 12.6001 9.64324V22.6056C12.5971 22.7519 12.5543 22.8945 12.4763 23.0182C12.3982 23.1419 12.2879 23.242 12.1573 23.3076C12.033 23.3689 11.8962 23.4006 11.7577 23.4C11.5947 23.402 11.4344 23.3588 11.2945 23.2752C11.0365 23.118 1.96567 17.556 1.36687 17.1948C1.07887 17.022 0.741665 16.668 0.734465 16.4052L0.600065 4.06203C0.600065 3.82443 0.572465 3.40563 0.946865 2.82363C1.78327 1.52283 4.70167 0.0432349 6.17887 0.810035L16.9777 6.27604C17.2381 6.41044 17.4001 6.67923 17.4001 7.14004Z" fill="#042756"/>
</svg>
