<svg width="24" height="24" viewBox="0 0 24 24" fill="none" xmlns="http://www.w3.org/2000/svg">
<path d="M16 6C18.2094 6 20 4.65703 20 3C20 1.34297 18.2094 0 16 0C13.7906 0 12 1.34297 12 3C12 4.65703 13.7906 6 16 6ZM14.0856 13.957C14.9644 14.7408 16.5231 14.8519 17.5837 14.2017L23.0837 10.8258C24.1519 10.1705 24.3081 8.98875 23.435 8.18766C22.5619 7.38562 20.9856 7.26938 19.9156 7.92422L16.3256 10.1273L13.8938 7.95656C12.9288 7.09453 11.4425 6.64781 9.89375 6.76922C8.38188 6.88547 7.06563 7.53188 6.37063 8.49984L3.285 12.8137C1.8225 14.8594 2.74187 17.3311 5.42188 18.6145L8.2225 20.25H2.5C1.11937 20.25 0 21.0895 0 22.125C0 23.1605 1.11937 24 2.5 24H15.5C17.63 24 18.8606 21.9942 17.2675 20.7994L10.4012 15.6497L12.5763 12.6089L14.0856 13.957Z" fill="#042756"/>
</svg>
