<svg width="21" height="22" viewBox="0 0 21 22" fill="none" xmlns="http://www.w3.org/2000/svg">
<path d="M15.0996 11.7001C14.3164 11.0001 13.5706 10.3167 12.8622 9.6499C12.1538 8.9831 11.5288 8.3289 10.9872 7.6873C10.4456 7.0457 10.0122 6.4249 9.687 5.8249C9.3622 5.2249 9.1998 4.6499 9.1998 4.0999C9.1998 3.2167 9.4998 2.4751 10.0998 1.8751C10.6998 1.2751 11.4414 0.975098 12.3246 0.975098C12.8414 0.975098 13.3414 1.1043 13.8246 1.3627C14.3082 1.6207 14.7332 1.9665 15.0996 2.4001C15.4664 1.9665 15.8914 1.6207 16.3746 1.3627C16.8582 1.1043 17.3582 0.975098 17.8746 0.975098C18.7582 0.975098 19.5 1.2751 20.1 1.8751C20.7 2.4751 21 3.2167 21 4.0999C21 4.6499 20.8374 5.2249 20.5122 5.8249C20.1874 6.4249 19.7542 7.0457 19.2126 7.6873C18.6706 8.3289 18.0454 8.9831 17.337 9.6499C16.629 10.3167 15.8832 11.0001 15.0996 11.7001ZM13.0998 21.4747L5.5746 19.3249V10.5247H7.8L14.1246 12.9001C14.6082 13.0833 15.0082 13.3833 15.3246 13.8001C15.6414 14.2165 15.7998 14.7581 15.7998 15.4249H14.0748C13.2916 15.4249 12.7082 15.3999 12.3246 15.3499C11.9414 15.2999 11.5582 15.2083 11.175 15.0751L9.3 14.4751L9.0246 15.2497L10.8 15.8749C11.2164 16.0249 11.6454 16.1249 12.087 16.1749C12.529 16.2249 13.0082 16.2499 13.5246 16.2499H18.375C19.375 16.2499 20.0624 16.4333 20.4372 16.8001C20.8124 17.1665 21 17.6581 21 18.2749V19.0249L13.0998 21.4747ZM0 20.7751V10.5247H3.9V20.7751H0Z" fill="#042756"/>
</svg>
